<svg width="109" height="50" viewBox="0 0 109 50" fill="none" xmlns="http://www.w3.org/2000/svg">
<path d="M107.037 2.70901H2.61084V46.6885H107.037V2.70901Z" fill="white" stroke="black" stroke-width="0.401639"/>
<path fill-rule="evenodd" clip-rule="evenodd" d="M0 25V49.5H54.2213H108.443V25V0.5H54.2213H0V25ZM12.7284 6.69609C13.6204 7.73312 13.6557 8.04078 13.6557 14.7807V21.7869H11.858H10.0603L9.95021 15.0594C9.85743 9.39631 9.74498 8.33197 9.23771 8.33197C8.71156 8.33197 8.63525 10.4739 8.63525 25.2008C8.63525 39.9277 8.71156 42.0697 9.23771 42.0697C9.74739 42.0697 9.85703 40.9387 9.94981 34.7398L10.0591 27.4098H11.8576H13.6557V34.8667C13.6557 44.3393 13.3469 45.0458 9.19593 45.0691C7.35281 45.0796 6.75276 44.9036 5.88241 44.0971L4.81967 43.1119V25.5101C4.81967 9.99315 4.89598 7.79899 5.46511 6.98688C6.36518 5.70163 7.50985 5.30321 9.81647 5.4727C11.3664 5.58636 12.0042 5.85425 12.7284 6.69609ZM23.673 5.91008C24.3116 6.24023 25.0109 7.06279 25.2599 7.7773C25.978 9.83811 25.8684 41.1017 25.1366 42.8537C24.414 44.5827 23.461 45.082 20.8808 45.082C19.1333 45.082 18.6345 44.9012 17.6412 43.908L16.4672 42.734V25.3209C16.4672 6.50371 16.4576 6.59006 18.6188 5.7181C19.9735 5.17107 22.4247 5.26425 23.673 5.91008ZM47.4015 5.92615C48.0465 6.25991 48.7606 6.88044 48.9879 7.30578C49.2374 7.77168 49.4016 11.7567 49.4016 17.3423V26.6066H46.5902H43.7787V34.4052C43.7787 42.3259 43.8843 42.8842 45.2848 42.3693C45.66 42.2311 45.7869 40.4213 45.7869 35.1988V28.2131H47.5943H49.4016V35.2229C49.4016 39.5048 49.2281 42.6135 48.9558 43.2115C48.3554 44.5293 46.9922 45.082 44.3438 45.082C42.5348 45.082 41.9573 44.9036 41.15 44.0959L40.1639 43.1103V25.4526C40.1639 15.741 40.2812 7.48933 40.425 7.1154C41.0395 5.51366 45.2246 4.80075 47.4015 5.92615ZM79.7933 6.68605L80.7295 7.77449V26.2274V44.6803H79.1563C78.2912 44.6803 77.5116 44.4655 77.4244 44.2032C77.3116 43.865 76.9838 43.9232 76.2974 44.404C75.0242 45.2956 74.2354 45.2591 72.9518 44.2494L71.8934 43.4172V35.0117C71.8934 25.6065 71.5802 26.6636 75.2532 23.667L77.1332 22.1331L77.0236 15.0317C76.9188 8.23477 76.8794 7.93033 76.1107 7.93033C75.3439 7.93033 75.3026 8.23477 75.1973 14.6578L75.0873 21.3852H73.4904H71.8934V14.4333C71.8934 9.47503 72.0372 7.30096 72.3955 6.85193C73.3317 5.67834 74.4965 5.29678 76.6806 5.44739C78.4446 5.56949 79.035 5.80405 79.7933 6.68605ZM103.49 6.68605C104.413 7.75883 104.426 7.90824 104.426 17.1905V26.6066H101.615H98.8033V34.4052C98.8033 42.3259 98.9089 42.8842 100.309 42.3693C100.685 42.2311 100.811 40.4213 100.811 35.1988V28.2131H102.619H104.426V35.2229C104.426 39.5048 104.253 42.6135 103.98 43.2115C103.38 44.5293 102.017 45.082 99.3684 45.082C97.5594 45.082 96.9818 44.9036 96.1746 44.0959L95.1885 43.1103L95.2014 25.3193C95.2114 11.2957 95.3255 7.38209 95.74 6.83666C96.5674 5.74661 98.0221 5.31566 100.377 5.46225C102.152 5.5727 102.727 5.79883 103.49 6.68605ZM35.4005 6.51575C35.9837 6.79007 36.6612 7.45519 36.9066 7.99339C37.2103 8.66051 37.3525 14.269 37.3525 25.5988V42.2255L36.3833 43.3525C35.4752 44.4084 35.1844 44.4883 31.7645 44.6197L28.1148 44.7603V25.5085C28.1148 14.9201 28.2505 6.11733 28.416 5.94703C28.8534 5.4972 34.1542 5.92896 35.4005 6.51575ZM55.1752 7.22746C55.2969 8.05604 55.5114 13.252 55.652 18.7746C56.1106 36.8026 56.3134 37.1122 57.3613 21.3852C57.869 13.7641 58.3678 7.12223 58.4694 6.625C58.6341 5.82092 58.896 5.72131 60.8484 5.72131C63.4325 5.72131 63.3048 5.44579 63.6381 11.7459C63.761 14.0654 64.1298 19.849 64.4575 24.5984C64.7856 29.3477 65.0563 33.9417 65.0595 34.8068C65.0628 35.672 65.1475 36.2981 65.2475 36.1977C65.3475 36.0977 65.6259 29.9679 65.866 22.5757C66.1062 15.1835 66.3966 8.36691 66.5119 7.42828C66.7183 5.74461 66.7428 5.72131 68.3032 5.72131C69.8186 5.72131 69.8856 5.77634 69.8929 7.02664C69.9065 9.26176 68.2594 41.172 68.0377 42.9734L67.8276 44.6803H65.3078H62.7875L61.8336 30.7234C60.7467 14.8233 60.6447 14.8562 59.6591 31.4262C59.298 37.501 58.9064 42.9685 58.7887 43.5758C58.5847 44.6329 58.4735 44.6803 56.1849 44.6803C54.6266 44.6803 53.7381 44.5056 53.6329 44.1783C53.3245 43.2196 51.3825 6.49206 51.6199 6.10769C51.7512 5.89522 52.5553 5.72131 53.4064 5.72131C54.8876 5.72131 54.9635 5.78598 55.1752 7.22746ZM86.5135 7.82992C86.634 8.98985 87.0232 15.7217 87.3782 22.7898C87.7333 29.8582 88.0695 35.6872 88.1253 35.743C88.1815 35.7989 88.5394 29.4735 88.9213 21.6865C89.3033 13.8999 89.6985 7.12223 89.7993 6.625C89.9524 5.86992 90.2455 5.72131 91.5814 5.72131H93.1803L93.1783 7.42828C93.1771 8.36691 92.6357 16.8166 91.9754 26.2049C91.3151 35.5932 90.7737 43.5907 90.7725 43.9775C90.7709 44.5739 90.3789 44.6803 88.1888 44.6803H85.607L85.3865 42.5717C84.6511 35.5418 82.6927 6.8202 82.9096 6.25389C83.0317 5.93579 83.7539 5.72131 84.7045 5.72131H86.2946L86.5135 7.82992ZM20.3499 8.39904C20.2025 8.54604 20.082 16.1266 20.082 25.2442C20.082 42.1315 20.2037 43.4923 21.5488 41.6528C21.9809 41.0616 22.0902 37.7625 22.0902 25.2984C22.0902 10.4671 21.9335 8.13115 20.9379 8.13115C20.7619 8.13115 20.4969 8.25164 20.3499 8.39904ZM43.7787 16.1358V24.1967H44.7912H45.8038L45.6949 16.2643C45.5869 8.38137 45.5804 8.33116 44.6824 8.20344L43.7787 8.07532V16.1358ZM98.8033 16.1639V24.1967H99.8074H100.811V16.1639V8.13115H99.8074H98.8033V16.1639ZM31.7295 25.2008C31.7295 42.3894 31.7745 42.8681 33.2557 41.3869C33.9478 40.6949 33.9478 9.70678 33.2557 9.01475C31.7745 7.53351 31.7295 8.01226 31.7295 25.2008ZM75.9709 25.9394C75.1174 26.8475 75.0921 27.1283 75.1977 34.4743C75.3066 42.0074 75.3146 42.0709 76.2111 42.1982L77.1148 42.3263V33.6634C77.1148 28.8983 77.0557 25 76.9838 25C76.9119 25 76.4561 25.4225 75.9709 25.9394Z" fill="url(#paint0_linear_5_146)"/>
<defs>
<linearGradient id="paint0_linear_5_146" x1="2.40984" y1="0.499999" x2="132.139" y2="76.8115" gradientUnits="userSpaceOnUse">
<stop stop-color="#240046"/>
<stop offset="1" stop-color="#7B2CBF"/>
</linearGradient>
</defs>
</svg>
